<svg xmlns="http://www.w3.org/2000/svg" width="48" height="48" id="finance"><g transform="translate(0 -1004.362)"><circle cx="24" cy="1028.362" r="24" fill="#1d67b1" fill-rule="evenodd"></circle><path fill="#154082" style="line-height:normal;text-indent:0;text-align:start;text-decoration-line:none;text-decoration-style:solid;text-decoration-color:#000;text-transform:none;block-progression:tb;isolation:auto;mix-blend-mode:normal" d="M27.25 47.75a24 24 0 0 0 .83-.1 24 24 0 0 0 2.34-.525 24 24 0 0 0 2.277-.756 24 24 0 0 0 2.19-.98 24 24 0 0 0 2.08-1.194 24 24 0 0 0 1.951-1.394 24 24 0 0 0 1.803-1.584 24 24 0 0 0 1.634-1.756 24 24 0 0 0 1.454-1.91 24 24 0 0 0 1.254-2.045 24 24 0 0 0 1.042-2.16 24 24 0 0 0 .823-2.254 24 24 0 0 0 .593-2.324 24 24 0 0 0 .36-2.372 24 24 0 0 0 0-.005L39 17.51a.5.5 0 0 0-.5-.5h-1.99L34 14.5a.5.5 0 0 0-.5-.5h-24a.5.5 0 0 0-.5.5v15a.5.5 0 0 0 .5.5l4.5 4.5a.5.5 0 0 0 .5.5l12.75 12.75z" color="#000" font-family="sans-serif" font-weight="400" transform="translate(0 1004.362)"></path><path fill="#fff" style="line-height:normal;text-indent:0;text-align:start;text-decoration-line:none;text-decoration-style:solid;text-decoration-color:#000;text-transform:none;block-progression:tb;isolation:auto;mix-blend-mode:normal" d="M1.5 1025.362a.5.5 0 0 0-.5.5v15a.5.5 0 0 0 .5.5H6v4.5a.5.5 0 0 0 .867.34l1.692-1.83H21.91l3.174 4.777a.5.5 0 0 0 .916-.277v-4.5h4.5a.5.5 0 0 0 .5-.5v-15a.5.5 0 0 0-.5-.5H26v-2.51a.5.5 0 0 0-.5-.5h-24zm.5 1h23v14H11.123a.5.5 0 0 0-.367.162L7 1044.587v-3.725a.5.5 0 0 0-.5-.5H2v-14zm11.492 2.496a.5.5 0 0 0-.492.51v.44c-.98.206-1.748.998-1.748 1.996 0 1.162 1.04 2.054 2.248 2.054.73 0 1.248.496 1.248 1.055 0 .56-.518 1.053-1.248 1.053s-1.248-.494-1.248-1.053c.01-.676-1.01-.676-1 0 0 1.025.784 1.781 1.748 1.998v.443a.5.5 0 1 0 1 0v-.445c.98-.206 1.748-.998 1.748-1.996 0-1.163-1.04-2.055-2.248-2.055-.73 0-1.248-.496-1.248-1.054 0-.552.506-1.036 1.22-1.05a.5.5 0 0 0 .057 0c.714.015 1.219.497 1.219 1.048-.01.676 1.01.676 1 0 0-1.025-.784-1.782-1.748-1.998v-.438a.5.5 0 0 0-.508-.508zm12.508.514h4v14h-4.5a.5.5 0 0 0-.5.5v3.344l-2.406-3.621a.5.5 0 0 0-.416-.223H9.484l1.858-2.01H25.5a.5.5 0 0 0 .5-.5v-11.49z" color="#000" font-family="sans-serif" font-weight="400" overflow="visible" transform="translate(8 -7)"></path></g></svg>